SplineFontDB: 1.0
FontName: Digital
FullName: Digital
FamilyName: Dig
Weight: Medium
Copyright: Created by Shane Powell with FontForge 1.0 (http://fontforge.sf.net)
Comments: 2006-8-14: Created.
Version: 001.000
ItalicAngle: 0
UnderlinePosition: -100
UnderlineWidth: 100
Ascent: 360
Descent: 0
NeedsXUIDChange: 1
XUID: [1021 841 123955355 5787920]
FSType: 0
OS2Version: 0
OS2_WeightWidthSlopeOnly: 0
OS2_UseTypoMetrics: 0
CreationTime: 1157133058
ModificationTime: 1166043874
PfmFamily: 17
TTFWeight: 500
TTFWidth: 5
LineGap: 32
VLineGap: 32
Panose: 2 0 6 9 0 0 0 0 0 0
OS2TypoAscent: 0
OS2TypoAOffset: 1
OS2TypoDescent: 0
OS2TypoDOffset: 1
OS2TypoLinegap: 32
OS2WinAscent: 0
OS2WinAOffset: 1
OS2WinDescent: 0
OS2WinDOffset: 1
HheadAscent: 8
HheadAOffset: 0
HheadDescent: 0
HheadDOffset: 1
OS2SubXSize: 6624
OS2SubYSize: 5152
OS2SubXOff: 0
OS2SubYOff: 667
OS2SupXSize: 98
OS2SupYSize: 48
OS2SupXOff: 5240
OS2SupYOff: 31512
OS2StrikeYSize: 5144
OS2StrikeYPos: 31512
OS2Vendor: 'PfEd'
ScriptLang: 1
 1 latn 1 dflt 
TtfTable: cvt  4
!"8kg
EndTtf
Encoding: ISO8859-1
UnicodeInterp: none
NameList: Adobe Glyph List
DisplaySize: -24
AntiAlias: 1
FitToEm: 1
WinInfo: 0 32 8
AnchorClass: "sequence" mkmk 0 0 1 0 
BeginChars: 256 82
StartChar: eight
Encoding: 56 56 0
Width: 200
Flags: W
TeX: 0 0 0 0
HStem: 10 40<60 140> 160 40<50 150> 310 40<60 140>
VStem: 10 40<60 140 220 300> 150 40<60 140 220 300>
CounterMasks: 1 e0
Fore
170 180 m 1
 150 160 l 1
 50 160 l 1
 30 180 l 1
 50 200 l 1
 150 200 l 1
 170 180 l 1
180 190 m 1
 150 220 l 1
 150 300 l 1
 180 330 l 1
 190 320 l 1
 190 200 l 1
 180 190 l 1
180 30 m 1
 150 60 l 1
 150 140 l 1
 180 170 l 1
 190 160 l 1
 190 40 l 1
 180 30 l 1
20 170 m 1
 50 140 l 1
 50 60 l 1
 20 30 l 1
 10 40 l 1
 10 160 l 1
 20 170 l 1
20 330 m 1
 50 300 l 1
 50 220 l 1
 20 190 l 1
 10 200 l 1
 10 320 l 1
 20 330 l 1
170 340 m 1
 140 310 l 1
 60 310 l 1
 30 340 l 1
 40 350 l 1
 160 350 l 1
 170 340 l 1
30 20 m 1
 60 50 l 1
 140 50 l 1
 170 20 l 1
 160 10 l 1
 40 10 l 1
 30 20 l 1
EndSplineSet
EndChar
StartChar: nine
Encoding: 57 57 1
Width: 200
Flags: HW
TeX: 0 0 0 0
HStem: 10 40<40 160> 160 40<50 150> 310 40<40 160>
VStem: 10 40<200 320> 150 40<40 160 200 320>
CounterMasks: 1 00
Fore
170 180 m 1
 150 160 l 1
 50 160 l 1
 30 180 l 1
 50 200 l 1
 150 200 l 1
 170 180 l 1
180 190 m 1
 150 220 l 1
 150 300 l 1
 180 330 l 1
 190 320 l 1
 190 200 l 1
 180 190 l 1
180 30 m 1
 150 60 l 1
 150 140 l 1
 180 170 l 1
 190 160 l 1
 190 40 l 1
 180 30 l 1
20 330 m 1
 50 300 l 1
 50 220 l 1
 20 190 l 1
 10 200 l 1
 10 320 l 1
 20 330 l 1
170 340 m 1
 140 310 l 1
 60 310 l 1
 30 340 l 1
 40 350 l 1
 160 350 l 1
 170 340 l 1
30 20 m 1
 60 50 l 1
 140 50 l 1
 170 20 l 1
 160 10 l 1
 40 10 l 1
 30 20 l 1
EndSplineSet
EndChar
StartChar: seven
Encoding: 55 55 2
Width: 200
Flags: W
TeX: 0 0 0 0
HStem: 310 40<40 160>
VStem: 150 40<40 160 200 320>
Fore
180 190 m 1
 150 220 l 1
 150 300 l 1
 180 330 l 1
 190 320 l 1
 190 200 l 1
 180 190 l 1
180 30 m 1
 150 60 l 1
 150 140 l 1
 180 170 l 1
 190 160 l 1
 190 40 l 1
 180 30 l 1
170 340 m 1
 140 310 l 1
 60 310 l 1
 30 340 l 1
 40 350 l 1
 160 350 l 1
 170 340 l 1
EndSplineSet
EndChar
StartChar: six
Encoding: 54 54 3
Width: 200
Flags: HW
TeX: 0 0 0 0
HStem: 10 40<40 160> 160 40<50 150> 310 40<40 160>
VStem: 10 40<40 160 200 320> 150 40<40 160>
CounterMasks: 1 00
Fore
170 180 m 1
 150 160 l 1
 50 160 l 1
 30 180 l 1
 50 200 l 1
 150 200 l 1
 170 180 l 1
180 30 m 1
 150 60 l 1
 150 140 l 1
 180 170 l 1
 190 160 l 1
 190 40 l 1
 180 30 l 1
20 170 m 1
 50 140 l 1
 50 60 l 1
 20 30 l 1
 10 40 l 1
 10 160 l 1
 20 170 l 1
20 330 m 1
 50 300 l 1
 50 220 l 1
 20 190 l 1
 10 200 l 1
 10 320 l 1
 20 330 l 1
170 340 m 1
 140 310 l 1
 60 310 l 1
 30 340 l 1
 40 350 l 1
 160 350 l 1
 170 340 l 1
30 20 m 1
 60 50 l 1
 140 50 l 1
 170 20 l 1
 160 10 l 1
 40 10 l 1
 30 20 l 1
EndSplineSet
EndChar
StartChar: five
Encoding: 53 53 4
Width: 200
Flags: HW
TeX: 0 0 0 0
HStem: 10 40<40 160> 160 40<50 150> 310 40<40 160>
VStem: 10 40<200 320> 150 40<40 160>
CounterMasks: 1 00
Fore
170 180 m 1
 150 160 l 1
 50 160 l 1
 30 180 l 1
 50 200 l 1
 150 200 l 1
 170 180 l 1
180 30 m 1
 150 60 l 1
 150 140 l 1
 180 170 l 1
 190 160 l 1
 190 40 l 1
 180 30 l 1
20 330 m 1
 50 300 l 1
 50 220 l 1
 20 190 l 1
 10 200 l 1
 10 320 l 1
 20 330 l 1
170 340 m 1
 140 310 l 1
 60 310 l 1
 30 340 l 1
 40 350 l 1
 160 350 l 1
 170 340 l 1
30 20 m 1
 60 50 l 1
 140 50 l 1
 170 20 l 1
 160 10 l 1
 40 10 l 1
 30 20 l 1
EndSplineSet
EndChar
StartChar: four
Encoding: 52 52 5
Width: 200
Flags: HW
TeX: 0 0 0 0
HStem: 160 40<50 150>
VStem: 10 40<200 320> 150 40<40 160 200 320>
Fore
170 180 m 1
 150 160 l 1
 50 160 l 1
 30 180 l 1
 50 200 l 1
 150 200 l 1
 170 180 l 1
180 190 m 1
 150 220 l 1
 150 300 l 1
 180 330 l 1
 190 320 l 1
 190 200 l 1
 180 190 l 1
180 30 m 1
 150 60 l 1
 150 140 l 1
 180 170 l 1
 190 160 l 1
 190 40 l 1
 180 30 l 1
20 330 m 5
 50 300 l 1
 50 220 l 1
 20 190 l 1
 10 200 l 1
 10 320 l 1
 20 330 l 5
EndSplineSet
EndChar
StartChar: three
Encoding: 51 51 6
Width: 200
Flags: HW
TeX: 0 0 0 0
HStem: 10 40<40 160> 160 40<50 150> 310 40<40 160>
VStem: 10 40<40 160 200 320> 150 40<40 160 200 320>
CounterMasks: 1 00
Fore
170 180 m 1
 150 160 l 1
 50 160 l 1
 30 180 l 1
 50 200 l 1
 150 200 l 1
 170 180 l 1
180 190 m 1
 150 220 l 1
 150 300 l 1
 180 330 l 1
 190 320 l 1
 190 200 l 1
 180 190 l 1
180 30 m 1
 150 60 l 1
 150 140 l 1
 180 170 l 1
 190 160 l 1
 190 40 l 1
 180 30 l 1
20 190 m 1
170 340 m 1
 140 310 l 1
 60 310 l 1
 30 340 l 1
 40 350 l 1
 160 350 l 1
 170 340 l 1
30 20 m 1
 60 50 l 1
 140 50 l 1
 170 20 l 1
 160 10 l 1
 40 10 l 1
 30 20 l 1
EndSplineSet
EndChar
StartChar: two
Encoding: 50 50 7
Width: 200
VWidth: 0
Flags: HW
TeX: 0 0 0 0
HStem: 10 40<40 160> 160 40<50 150> 310 40<40 160>
VStem: 10 40<40 160> 150 40<200 320>
CounterMasks: 1 00
Fore
170 180 m 1
 150 160 l 1
 50 160 l 1
 30 180 l 1
 50 200 l 1
 150 200 l 1
 170 180 l 1
180 190 m 1
 150 220 l 1
 150 300 l 1
 180 330 l 1
 190 320 l 1
 190 200 l 1
 180 190 l 1
20 170 m 1
 50 140 l 1
 50 60 l 1
 20 30 l 1
 10 40 l 1
 10 160 l 1
 20 170 l 1
170 340 m 1
 140 310 l 1
 60 310 l 1
 30 340 l 1
 40 350 l 1
 160 350 l 1
 170 340 l 1
30 20 m 1
 60 50 l 1
 140 50 l 1
 170 20 l 1
 160 10 l 1
 40 10 l 1
 30 20 l 1
EndSplineSet
EndChar
StartChar: one
Encoding: 49 49 8
Width: 200
VWidth: 0
Flags: HW
TeX: 0 0 0 0
VStem: 80 40<40 160 200 320>
Fore
110 190 m 5
 80 220 l 5
 80 300 l 5
 110 330 l 5
 120 320 l 5
 120 200 l 5
 110 190 l 5
110 30 m 5
 80 60 l 5
 80 140 l 5
 110 170 l 5
 120 160 l 5
 120 40 l 5
 110 30 l 5
EndSplineSet
EndChar
StartChar: zero
Encoding: 48 48 9
Width: 200
VWidth: 0
Flags: HW
TeX: 0 0 0 0
HStem: 10 40<40 160> 310 40<40 160>
VStem: 10 40<40 160 200 320> 150 40<40 160 200 320>
Fore
180 190 m 1
 150 220 l 1
 150 300 l 1
 180 330 l 1
 190 320 l 1
 190 200 l 1
 180 190 l 1
180 30 m 1
 150 60 l 1
 150 140 l 1
 180 170 l 1
 190 160 l 1
 190 40 l 1
 180 30 l 1
20 170 m 1
 50 140 l 1
 50 60 l 1
 20 30 l 1
 10 40 l 1
 10 160 l 1
 20 170 l 1
20 330 m 1
 50 300 l 1
 50 220 l 1
 20 190 l 1
 10 200 l 1
 10 320 l 1
 20 330 l 1
170 340 m 1
 140 310 l 1
 60 310 l 1
 30 340 l 1
 40 350 l 1
 160 350 l 1
 170 340 l 1
30 20 m 1
 60 50 l 1
 140 50 l 1
 170 20 l 1
 160 10 l 1
 40 10 l 1
 30 20 l 1
EndSplineSet
EndChar
StartChar: period
Encoding: 46 46 10
Width: 106
Flags: W
TeX: 0 0 0 0
Fore
26.2002 30.9004 m 4
 26.2002 41.1006 40.7998 54.5 52.5 54.5 c 4
 64.2002 54.5 78.7998 41.1006 78.7998 30.9004 c 4
 78.7998 20.7002 64.2002 7.30078 52.5 7.30078 c 4
 40.7998 7.30078 26.2002 20.7002 26.2002 30.9004 c 4
EndSplineSet
EndChar
StartChar: hyphen
Encoding: 45 45 11
Width: 200
Flags: HW
TeX: 0 0 0 0
HStem: 160 40<50 150>
Fore
170 180 m 1
 150 160 l 1
 50 160 l 1
 30 180 l 1
 50 200 l 1
 150 200 l 1
 170 180 l 1
EndSplineSet
EndChar
StartChar: A
Encoding: 65 65 12
Width: 200
Flags: HW
TeX: 0 0 0 0
HStem: 181.01 40<494.004 594.004> 31.0098 40<484.004 604.004>
VStem: 594.004 40<221.01 341.01 61.0098 181.01> 454.004 40<221.01 341.01 61.0098 181.01>
Fore
90 345 m 1
 90 305.005 l 1
 49.9961 220.002 l 1
 19.998 189.999 l 1
 9.99805 219.999 l 1
 59.665 344.999 l 1
 90 345 l 1
179.998 189.999 m 5
 149.998 220.003 l 1
 109.995 304.338 l 1
 109.998 345.001 l 1
 139.998 344.999 l 1
 189.998 219.999 l 1
 179.998 189.999 l 5
170 180 m 1
 150 160 l 1
 50 160 l 1
 30 180 l 1
 50 200 l 1
 150 200 l 1
 170 180 l 1
180 30 m 1
 150 60 l 1
 150 140 l 1
 180 170 l 1
 190 160 l 1
 190 40 l 1
 180 30 l 1
20 170 m 1
 50 140 l 1
 50 60 l 1
 20 30 l 1
 10 40 l 1
 10 160 l 1
 20 170 l 1
EndSplineSet
EndChar
StartChar: B
Encoding: 66 66 13
Width: 200
Flags: HW
TeX: 0 0 0 0
HStem: 10 40<40 160> 160 40<50 150> 310 40<40 160>
VStem: 10 40<40 160 200 320> 150 40<40 160 200 320>
CounterMasks: 1 00
Fore
170 180 m 1
 150 160 l 1
 50 160 l 1
 30 180 l 1
 50 200 l 1
 150 200 l 1
 170 180 l 1
180 190 m 1
 150 220 l 1
 150 300 l 1
 180 330 l 1
 190 320 l 1
 190 200 l 1
 180 190 l 1
180 30 m 1
 150 60 l 1
 150 140 l 1
 180 170 l 1
 190 160 l 1
 190 40 l 1
 180 30 l 1
20 170 m 1
 50 140 l 1
 50 60 l 1
 10 20 l 1
 10 40 l 1
 10 160 l 1
 20 170 l 1
10 340 m 1
 50 300 l 1
 50 220 l 1
 20 190 l 1
 10 200 l 1
 10 320 l 1
 10 340 l 1
170 340 m 1
 140 310 l 1
 60 310 l 1
 20 350 l 1
 40 350 l 1
 160 350 l 1
 170 340 l 1
20 10 m 1
 60 50 l 1
 140 50 l 1
 170 20 l 1
 160 10 l 1
 40 10 l 1
 20 10 l 1
EndSplineSet
EndChar
StartChar: C
Encoding: 67 67 14
Width: 200
Flags: HW
TeX: 0 0 0 0
HStem: 10 40<40 160> 310 40<40 160>
VStem: 10 40<40 160 200 320>
Fore
20 170 m 1
 50 140 l 1
 50 60 l 1
 20 30 l 1
 10 40 l 1
 10 160 l 1
 20 170 l 1
20 330 m 1
 50 300 l 1
 50 220 l 1
 20 190 l 1
 10 200 l 1
 10 320 l 1
 20 330 l 1
170 340 m 1
 140 310 l 1
 60 310 l 1
 30 340 l 1
 40 350 l 1
 160 350 l 1
 170 340 l 1
30 20 m 1
 60 50 l 1
 140 50 l 1
 170 20 l 1
 160 10 l 1
 40 10 l 1
 30 20 l 1
EndSplineSet
EndChar
StartChar: D
Encoding: 68 68 15
Width: 200
Flags: HW
TeX: 0 0 0 0
HStem: 10 40<40 160> 160 40<50 150> 310 40<40 160>
VStem: 10 40<40 160 200 320> 150 40<40 160 200 320>
Fore
180 190 m 1
 150 220 l 1
 150 300 l 1
 180 330 l 1
 190 320 l 1
 190 200 l 1
 180 190 l 1
180 30 m 1
 150 60 l 1
 150 140 l 1
 180 170 l 1
 190 160 l 1
 190 40 l 1
 180 30 l 1
20 170 m 1
 50 140 l 1
 50 60 l 1
 10 20 l 1
 10 40 l 1
 10 160 l 1
 20 170 l 1
10 340 m 1
 50 300 l 1
 50 220 l 1
 20 190 l 1
 10 200 l 1
 10 320 l 1
 10 340 l 1
170 340 m 1
 140 310 l 1
 60 310 l 1
 20 350 l 1
 40 350 l 1
 160 350 l 1
 170 340 l 1
20 10 m 1
 60 50 l 1
 140 50 l 1
 170 20 l 1
 160 10 l 1
 40 10 l 1
 20 10 l 1
EndSplineSet
EndChar
StartChar: E
Encoding: 69 69 16
Width: 200
Flags: HW
TeX: 0 0 0 0
HStem: 10 40<40 160> 160 40<50 150> 310 40<40 160>
VStem: 10 40<40 160 200 320>
CounterMasks: 1 00
Fore
130 180 m 1
 110 160 l 1
 50 160 l 1
 30 180 l 1
 50 200 l 1
 110 200 l 1
 130 180 l 1
20 170 m 1
 50 140 l 1
 50 60 l 1
 20 30 l 1
 10 40 l 1
 10 160 l 1
 20 170 l 1
20 330 m 1
 50 300 l 1
 50 220 l 1
 20 190 l 1
 10 200 l 1
 10 320 l 1
 20 330 l 1
170 340 m 1
 140 310 l 1
 60 310 l 1
 30 340 l 1
 40 350 l 1
 160 350 l 1
 170 340 l 1
30 20 m 1
 60 50 l 1
 140 50 l 1
 170 20 l 1
 160 10 l 1
 40 10 l 1
 30 20 l 1
EndSplineSet
EndChar
StartChar: F
Encoding: 70 70 17
Width: 200
Flags: HW
TeX: 0 0 0 0
HStem: 160 40<50 150> 310 40<40 160>
VStem: 10 40<40 160 200 320>
Fore
170 180 m 1
 150 160 l 1
 50 160 l 1
 30 180 l 1
 50 200 l 1
 150 200 l 1
 170 180 l 1
20 170 m 1
 50 140 l 1
 50 60 l 1
 20 30 l 1
 10 40 l 1
 10 160 l 1
 20 170 l 1
20 330 m 1
 50 300 l 1
 50 220 l 1
 20 190 l 1
 10 200 l 1
 10 320 l 1
 20 330 l 1
170 340 m 1
 140 310 l 1
 60 310 l 1
 30 340 l 1
 40 350 l 1
 160 350 l 1
 170 340 l 1
EndSplineSet
EndChar
StartChar: G
Encoding: 71 71 18
Width: 200
Flags: HW
TeX: 0 0 0 0
HStem: 10 40<40 160> 160 40<106 150> 310 40<40 160>
VStem: 10 40<40 160 200 320> 150 40<40 160>
CounterMasks: 1 00
Fore
170 180 m 1
 150 160 l 1
 106 160 l 1
 86 180 l 1
 106 200 l 1
 190 200 l 1
 170 180 l 1
180 30 m 1
 150 60 l 1
 150 140 l 1
 190 180 l 1
 190 160 l 1
 190 40 l 1
 180 30 l 1
20 170 m 1
 50 140 l 1
 50 60 l 1
 20 30 l 1
 10 40 l 1
 10 160 l 1
 20 170 l 1
20 330 m 1
 50 300 l 1
 50 220 l 1
 20 190 l 1
 10 200 l 1
 10 320 l 1
 20 330 l 1
170 340 m 1
 140 310 l 1
 60 310 l 1
 30 340 l 1
 40 350 l 1
 160 350 l 1
 170 340 l 1
30 20 m 1
 60 50 l 1
 140 50 l 1
 170 20 l 1
 160 10 l 1
 40 10 l 1
 30 20 l 1
EndSplineSet
EndChar
StartChar: H
Encoding: 72 72 19
Width: 200
Flags: HW
TeX: 0 0 0 0
HStem: 160 40<50 150>
VStem: 10 40<40 160 200 320> 150 40<40 160 200 320>
Fore
170 180 m 1
 150 160 l 1
 50 160 l 1
 30 180 l 1
 50 200 l 1
 150 200 l 1
 170 180 l 1
180 190 m 1
 150 220 l 1
 150 300 l 1
 180 330 l 1
 190 320 l 1
 190 200 l 1
 180 190 l 1
180 30 m 1
 150 60 l 1
 150 140 l 1
 180 170 l 1
 190 160 l 1
 190 40 l 1
 180 30 l 1
20 170 m 1
 50 140 l 1
 50 60 l 1
 20 30 l 1
 10 40 l 1
 10 160 l 1
 20 170 l 1
20 330 m 1
 50 300 l 1
 50 220 l 1
 20 190 l 1
 10 200 l 1
 10 320 l 1
 20 330 l 1
EndSplineSet
EndChar
StartChar: I
Encoding: 73 73 20
Width: 200
VWidth: 0
Flags: HW
TeX: 0 0 0 0
VStem: 80 40<40 160 200 320>
Fore
110 190 m 1
 80 220 l 1
 80 300 l 1
 110 330 l 1
 120 320 l 1
 120 200 l 1
 110 190 l 1
110 30 m 1
 80 60 l 1
 80 140 l 1
 110 170 l 1
 120 160 l 1
 120 40 l 1
 110 30 l 1
EndSplineSet
EndChar
StartChar: J
Encoding: 74 74 21
Width: 200
Flags: HW
TeX: 0 0 0 0
HStem: 10 40<40 160> 160 40<50 150> 310 40<40 160>
VStem: 10 40<40 160 200 320> 150 40<40 160 200 320>
Fore
180 190 m 1
 150 220 l 1
 150 300 l 1
 180 330 l 1
 190 320 l 1
 190 200 l 1
 180 190 l 1
180 30 m 1
 150 60 l 1
 150 140 l 1
 180 170 l 1
 190 160 l 1
 190 40 l 1
 180 30 l 1
20 170 m 1
 50 140 l 1
 50 60 l 1
 20 30 l 1
 10 40 l 1
 10 160 l 1
 20 170 l 1
30 20 m 1
 60 50 l 1
 140 50 l 1
 170 20 l 1
 160 10 l 1
 40 10 l 1
 30 20 l 1
EndSplineSet
EndChar
StartChar: K
Encoding: 75 75 22
Width: 200
Flags: HW
TeX: 0 0 0 0
HStem: 160 40<50 150>
VStem: 10 40<40 160 200 320> 150 40<40 160>
Fore
180 312.426 m 1
 180 270 l 1
 123.431 213.431 l 1
 81.0049 213.431 l 1
 81.0049 227.572 l 1
 165.857 312.426 l 1
 180 312.426 l 1
170 180 m 1
 150 160 l 1
 50 160 l 1
 30 180 l 1
 50 200 l 1
 150 200 l 1
 170 180 l 1
180 30 m 1
 150 60 l 1
 150 140 l 1
 180 170 l 1
 190 160 l 1
 190 40 l 1
 180 30 l 1
20 170 m 1
 50 140 l 1
 50 60 l 1
 20 30 l 1
 10 40 l 1
 10 160 l 1
 20 170 l 1
20 330 m 1
 50 300 l 1
 50 220 l 1
 20 190 l 1
 10 200 l 1
 10 320 l 1
 20 330 l 1
EndSplineSet
EndChar
StartChar: L
Encoding: 76 76 23
Width: 200
Flags: HW
TeX: 0 0 0 0
HStem: 10 40<40 160> 160 40<50 150> 310 40<40 160>
VStem: 10 40<40 160 200 320> 150 40<40 160 200 320>
Fore
20 170 m 5
 50 140 l 5
 50 60 l 5
 20 30 l 5
 10 40 l 5
 10 160 l 5
 20 170 l 5
20 330 m 5
 50 300 l 5
 50 220 l 5
 20 190 l 5
 10 200 l 5
 10 320 l 5
 20 330 l 5
30 20 m 5
 60 50 l 5
 140 50 l 5
 170 20 l 5
 160 10 l 5
 40 10 l 5
 30 20 l 5
EndSplineSet
EndChar
StartChar: M
Encoding: 77 77 24
Width: 200
Flags: HW
TeX: 0 0 0 0
HStem: 310 40<40 160>
VStem: 10 40<40 160 200 320> 80 40<220 290> 150 40<40 160 200 320>
CounterMasks: 1 00
Fore
100 290 m 1
 120 290 l 1
 120 220 l 1
 100 200 l 1
 80 220 l 1
 80 290 l 1
 100 290 l 1
180 190 m 1
 150 220 l 1
 150 300 l 1
 180 330 l 1
 190 320 l 1
 190 200 l 1
 180 190 l 1
180 30 m 1
 150 60 l 1
 150 140 l 1
 180 170 l 1
 190 160 l 1
 190 40 l 1
 180 30 l 1
20 170 m 1
 50 140 l 1
 50 60 l 1
 20 30 l 1
 10 40 l 1
 10 160 l 1
 20 170 l 1
20 330 m 1
 50 300 l 1
 50 220 l 1
 20 190 l 1
 10 200 l 1
 10 320 l 1
 20 330 l 1
170 340 m 1
 140 310 l 1
 60 310 l 1
 30 340 l 1
 40 350 l 1
 160 350 l 1
 170 340 l 1
EndSplineSet
EndChar
StartChar: N
Encoding: 78 78 25
Width: 200
Flags: HW
TeX: 0 0 0 0
VStem: 10 40<40 160 200 320> 150 40<40 160 200 320>
Fore
139.996 95.501 m 5
 110.995 95.501 l 5
 59.9961 225.501 l 5
 59.9971 265.5 l 5
 90 265.5 l 5
 139.996 130.501 l 5
 139.996 95.501 l 5
180 190 m 1
 150 220 l 1
 150 300 l 1
 180 330 l 1
 190 320 l 1
 190 200 l 1
 180 190 l 1
180 30 m 1
 150 60 l 1
 150 140 l 1
 180 170 l 1
 190 160 l 1
 190 40 l 1
 180 30 l 1
20 170 m 1
 50 140 l 1
 50 60 l 1
 20 30 l 1
 10 40 l 1
 10 160 l 1
 20 170 l 1
20 330 m 1
 50 300 l 1
 50 220 l 1
 20 190 l 1
 10 200 l 1
 10 320 l 1
 20 330 l 1
EndSplineSet
EndChar
StartChar: O
Encoding: 79 79 26
Width: 200
VWidth: 0
Flags: HW
TeX: 0 0 0 0
HStem: 10 40<40 160> 310 40<40 160>
VStem: 10 40<40 160 200 320> 150 40<40 160 200 320>
Fore
180 190 m 1
 150 220 l 1
 150 300 l 1
 180 330 l 1
 190 320 l 1
 190 200 l 1
 180 190 l 1
180 30 m 1
 150 60 l 1
 150 140 l 1
 180 170 l 1
 190 160 l 1
 190 40 l 1
 180 30 l 1
20 170 m 1
 50 140 l 1
 50 60 l 1
 20 30 l 1
 10 40 l 1
 10 160 l 1
 20 170 l 1
20 330 m 1
 50 300 l 1
 50 220 l 1
 20 190 l 1
 10 200 l 1
 10 320 l 1
 20 330 l 1
170 340 m 1
 140 310 l 1
 60 310 l 1
 30 340 l 1
 40 350 l 1
 160 350 l 1
 170 340 l 1
30 20 m 1
 60 50 l 1
 140 50 l 1
 170 20 l 1
 160 10 l 1
 40 10 l 1
 30 20 l 1
EndSplineSet
EndChar
StartChar: P
Encoding: 80 80 27
Width: 200
Flags: HW
TeX: 0 0 0 0
HStem: 160 40<50 150> 310 40<40 160>
VStem: 10 40<40 160 200 320> 150 40<200 320>
Fore
170 180 m 1
 150 160 l 1
 50 160 l 1
 30 180 l 1
 50 200 l 1
 150 200 l 1
 170 180 l 1
180 190 m 1
 150 220 l 1
 150 300 l 1
 180 330 l 1
 190 320 l 1
 190 200 l 1
 180 190 l 1
20 170 m 1
 50 140 l 1
 50 60 l 1
 20 30 l 1
 10 40 l 1
 10 160 l 1
 20 170 l 1
20 330 m 1
 50 300 l 1
 50 220 l 1
 20 190 l 1
 10 200 l 1
 10 320 l 1
 20 330 l 1
170 340 m 1
 140 310 l 1
 60 310 l 1
 30 340 l 1
 40 350 l 1
 160 350 l 1
 170 340 l 1
EndSplineSet
EndChar
StartChar: Q
Encoding: 81 81 28
Width: 200
Flags: HW
TeX: 0 0 0 0
HStem: 10 40<40 130> 310 40<40 160>
VStem: 10 40<40 160 200 320> 150 40<70 160 200 320>
Fore
190.5 10.5 m 1
 162.216 10.5 l 1
 91.5059 81.21 l 1
 91.5059 109.494 l 1
 119.79 109.494 l 1
 190.5 38.7842 l 1
 190.5 10.5 l 1
180 190 m 1
 150 220 l 1
 150 300 l 1
 180 330 l 1
 190 320 l 1
 190 200 l 1
 180 190 l 1
180 60 m 1
 150 90 l 1
 150 140 l 1
 180 170 l 1
 190 160 l 1
 190 70 l 1
 180 60 l 1
20 170 m 1
 50 140 l 1
 50 60 l 1
 20 30 l 1
 10 40 l 1
 10 160 l 1
 20 170 l 1
20 330 m 1
 50 300 l 1
 50 220 l 1
 20 190 l 1
 10 200 l 1
 10 320 l 1
 20 330 l 1
170 340 m 1
 140 310 l 1
 60 310 l 1
 30 340 l 1
 40 350 l 1
 160 350 l 1
 170 340 l 1
30 20 m 1
 60 50 l 1
 110 50 l 1
 140 20 l 1
 130 10 l 1
 40 10 l 1
 30 20 l 1
EndSplineSet
EndChar
StartChar: R
Encoding: 82 82 29
Width: 200
Flags: HW
TeX: 0 0 0 0
HStem: 160 40<50 150> 310 40<40 160>
VStem: 10 40<40 160 200 320> 150 40<200 320>
Fore
81.5049 138.995 m 1
 123.931 138.995 l 1
 180.5 82.4258 l 1
 180.5 40 l 1
 166.358 40 l 1
 81.5049 124.853 l 1
 81.5049 138.995 l 1
170 180 m 1
 150 160 l 1
 50 160 l 1
 30 180 l 1
 50 200 l 1
 150 200 l 1
 170 180 l 1
180 190 m 1
 150 220 l 1
 150 300 l 1
 180 330 l 1
 190 320 l 1
 190 200 l 1
 180 190 l 1
20 170 m 1
 50 140 l 1
 50 60 l 1
 20 30 l 1
 10 40 l 1
 10 160 l 1
 20 170 l 1
20 330 m 1
 50 300 l 1
 50 220 l 1
 20 190 l 1
 10 200 l 1
 10 320 l 1
 20 330 l 1
170 340 m 1
 140 310 l 1
 60 310 l 1
 30 340 l 1
 40 350 l 1
 160 350 l 1
 170 340 l 1
EndSplineSet
EndChar
StartChar: S
Encoding: 83 83 30
Width: 200
Flags: HW
TeX: 0 0 0 0
HStem: 10 40<40 160> 160 40<50 150> 310 40<40 160>
VStem: 10 40<200 320> 150 40<40 160>
CounterMasks: 1 00
Fore
170 180 m 1
 150 160 l 1
 50 160 l 1
 30 180 l 1
 50 200 l 1
 150 200 l 1
 170 180 l 1
180 30 m 1
 150 60 l 1
 150 140 l 1
 180 170 l 1
 190 160 l 1
 190 40 l 1
 180 30 l 1
20 330 m 1
 50 300 l 1
 50 220 l 1
 20 190 l 1
 10 200 l 1
 10 320 l 1
 20 330 l 1
170 340 m 1
 140 310 l 1
 60 310 l 1
 30 340 l 1
 40 350 l 1
 160 350 l 1
 170 340 l 1
30 20 m 1
 60 50 l 1
 140 50 l 1
 170 20 l 1
 160 10 l 1
 40 10 l 1
 30 20 l 1
EndSplineSet
EndChar
StartChar: T
Encoding: 84 84 31
Width: 200
Flags: HW
TeX: 0 0 0 0
HStem: 310 40<40 160>
VStem: 86 40<40 160 200 300>
Fore
116 190 m 1
 86 220 l 1
 86 300 l 1
 116 300 l 1
 126 300 l 1
 126 200 l 1
 116 190 l 1
116 30 m 1
 86 60 l 1
 86 140 l 1
 116 170 l 1
 126 160 l 1
 126 40 l 1
 116 30 l 1
170 340 m 1
 140 310 l 1
 60 310 l 1
 30 340 l 1
 40 350 l 1
 160 350 l 1
 170 340 l 1
EndSplineSet
EndChar
StartChar: U
Encoding: 85 85 32
Width: 200
Flags: HW
TeX: 0 0 0 0
HStem: 10 40<40 160>
VStem: 10 40<40 160 200 320> 150 40<40 160 200 320>
Fore
180 190 m 1
 150 220 l 1
 150 300 l 1
 180 330 l 1
 190 320 l 1
 190 200 l 1
 180 190 l 1
180 30 m 1
 150 60 l 1
 150 140 l 1
 180 170 l 1
 190 160 l 1
 190 40 l 1
 180 30 l 1
20 170 m 1
 50 140 l 1
 50 60 l 1
 20 30 l 1
 10 40 l 1
 10 160 l 1
 20 170 l 1
20 330 m 1
 50 300 l 1
 50 220 l 1
 20 190 l 1
 10 200 l 1
 10 320 l 1
 20 330 l 1
30 20 m 1
 60 50 l 1
 140 50 l 1
 170 20 l 1
 160 10 l 1
 40 10 l 1
 30 20 l 1
EndSplineSet
EndChar
StartChar: V
Encoding: 86 86 33
Width: 200
Flags: HW
TeX: 0 0 0 0
HStem: 10 40<40 160> 160 40<50 150> 310 40<40 160>
VStem: 10 40<40 160 200 320> 150 40<40 160 200 320>
Fore
109.998 9.99902 m 1
 109.998 49.9941 l 1
 160.002 164.997 l 1
 190 165 l 1
 190 135 l 1
 140.333 10 l 1
 109.998 9.99902 l 1
10 165 m 1
 40 164.996 l 1
 90.0029 50.6611 l 1
 90 9.99805 l 1
 60 10 l 1
 10 135 l 1
 10 165 l 1
180 185 m 1
 150 215 l 1
 150 300 l 1
 180 330 l 1
 190 320 l 1
 190 195 l 1
 180 185 l 1
20 330 m 1
 50 300 l 1
 50 215 l 1
 20 185 l 1
 10 195 l 1
 10 320 l 1
 20 330 l 1
EndSplineSet
EndChar
StartChar: W
Encoding: 87 87 34
Width: 200
Flags: HW
TeX: 0 0 0 0
HStem: 30 40<40 160>
VStem: 10 40<60 180 220 340> 80 40<90 160> 150 40<60 180 220 340>
CounterMasks: 1 00
Fore
100 90 m 5
 80 90 l 5
 80 160 l 5
 100 180 l 5
 120 160 l 5
 120 90 l 5
 100 90 l 5
20 190 m 5
 50 160 l 5
 50 80 l 5
 20 50 l 5
 10 60 l 5
 10 180 l 5
 20 190 l 5
20 350 m 5
 50 320 l 5
 50 240 l 5
 20 210 l 5
 10 220 l 5
 10 340 l 5
 20 350 l 5
180 210 m 5
 150 240 l 5
 150 320 l 5
 180 350 l 5
 190 340 l 5
 190 220 l 5
 180 210 l 5
180 50 m 5
 150 80 l 5
 150 160 l 5
 180 190 l 5
 190 180 l 5
 190 60 l 5
 180 50 l 5
30 40 m 5
 60 70 l 5
 140 70 l 5
 170 40 l 5
 160 30 l 5
 40 30 l 5
 30 40 l 5
EndSplineSet
EndChar
StartChar: X
Encoding: 88 88 35
Width: 200
Flags: HW
TeX: 0 0 0 0
HStem: 10 40<40 160> 160 40<50 150> 310 40<40 160>
VStem: 10 40<40 160 200 320> 150 40<40 160 200 320>
Fore
109.998 189.999 m 5
 109.998 229.994 l 5
 160.002 339.997 l 5
 190 340 l 5
 190 310 l 5
 140.333 190 l 5
 109.998 189.999 l 5
190 20 m 5
 159.999 20 l 5
 110 130 l 5
 110.001 169.999 l 5
 140.004 169.999 l 5
 190 50 l 5
 190 20 l 5
90.001 169.995 m 5
 90 130 l 5
 40.001 20.001 l 5
 10 20 l 5
 10 50 l 5
 59.998 169.994 l 5
 90.001 169.995 l 5
10 340 m 5
 40 339.996 l 5
 90.0029 230.661 l 5
 90 189.998 l 5
 60 190 l 5
 10 310 l 5
 10 340 l 5
EndSplineSet
EndChar
StartChar: Y
Encoding: 89 89 36
Width: 200
Flags: HW
TeX: 0 0 0 0
HStem: 160 40<50 150>
VStem: 10 40<200 320> 89 40<40 140> 150 40<200 320>
Fore
170 180 m 1
 150 160 l 1
 50 160 l 1
 30 180 l 1
 50 200 l 1
 150 200 l 1
 170 180 l 1
180 190 m 1
 150 220 l 1
 150 300 l 1
 180 330 l 1
 190 320 l 1
 190 200 l 1
 180 190 l 1
119 30 m 1
 89 60 l 1
 89 140 l 1
 119 140 l 1
 129 140 l 1
 129 40 l 1
 119 30 l 1
20 330 m 1
 50 300 l 1
 50 220 l 1
 20 190 l 1
 10 200 l 1
 10 320 l 1
 20 330 l 1
EndSplineSet
EndChar
StartChar: Z
Encoding: 90 90 37
Width: 200
Flags: HW
TeX: 0 0 0 0
HStem: 465.995 40<48.1436 168.144> 165.995 40<48.1436 168.144>
Fore
180 310 m 1
 180 267.574 l 1
 118.431 191.005 l 1
 81.0049 191.005 l 1
 81.0049 205.147 l 1
 165.857 310 l 1
 180 310 l 1
20 50 m 1
 20 92.4258 l 1
 81.5693 168.995 l 1
 118.995 168.995 l 1
 118.995 154.853 l 1
 34.1426 50 l 1
 20 50 l 1
170 340 m 1
 140 310 l 1
 60 310 l 1
 30 340 l 1
 40 350 l 1
 160 350 l 1
 170 340 l 1
30 20 m 1
 60 50 l 1
 140 50 l 1
 170 20 l 1
 160 10 l 1
 40 10 l 1
 30 20 l 1
EndSplineSet
EndChar
StartChar: bracketleft
Encoding: 91 91 38
Width: 200
Flags: HW
TeX: 0 0 0 0
HStem: 10 40<40 160> 310 40<40 160>
VStem: 10 40<40 160 200 320>
Fore
20 170 m 1
 50 140 l 1
 50 60 l 1
 20 30 l 1
 10 40 l 1
 10 160 l 1
 20 170 l 1
20 330 m 1
 50 300 l 1
 50 220 l 1
 20 190 l 1
 10 200 l 1
 10 320 l 1
 20 330 l 1
170 340 m 1
 140 310 l 1
 60 310 l 1
 30 340 l 1
 40 350 l 1
 160 350 l 1
 170 340 l 1
30 20 m 1
 60 50 l 1
 140 50 l 1
 170 20 l 1
 160 10 l 1
 40 10 l 1
 30 20 l 1
EndSplineSet
EndChar
StartChar: bracketright
Encoding: 93 93 39
Width: 200
Flags: HW
TeX: 0 0 0 0
HStem: 10 40<40 160> 310 40<40 160>
VStem: 150 40<40 160 200 320>
Fore
180 190 m 1
 150 220 l 1
 150 300 l 1
 180 330 l 1
 190 320 l 1
 190 200 l 1
 180 190 l 1
180 30 m 1
 150 60 l 1
 150 140 l 1
 180 170 l 1
 190 160 l 1
 190 40 l 1
 180 30 l 1
170 340 m 1
 140 310 l 1
 60 310 l 1
 30 340 l 1
 40 350 l 1
 160 350 l 1
 170 340 l 1
30 20 m 1
 60 50 l 1
 140 50 l 1
 170 20 l 1
 160 10 l 1
 40 10 l 1
 30 20 l 1
EndSplineSet
EndChar
StartChar: parenleft
Encoding: 40 40 40
Width: 200
Flags: HW
TeX: 0 0 0 0
HStem: 10 40<40 160> 310 40<40 160>
VStem: 10 40<40 160 200 320>
Fore
20 170 m 1
 50 140 l 1
 50 60 l 1
 20 30 l 1
 10 40 l 1
 10 160 l 1
 20 170 l 1
20 330 m 1
 50 300 l 1
 50 220 l 1
 20 190 l 1
 10 200 l 1
 10 320 l 1
 20 330 l 1
170 340 m 1
 140 310 l 1
 60 310 l 1
 30 340 l 1
 40 350 l 1
 160 350 l 1
 170 340 l 1
30 20 m 1
 60 50 l 1
 140 50 l 1
 170 20 l 1
 160 10 l 1
 40 10 l 1
 30 20 l 1
EndSplineSet
EndChar
StartChar: parenright
Encoding: 41 41 41
Width: 200
Flags: HW
TeX: 0 0 0 0
HStem: 10 40<40 160> 310 40<40 160>
VStem: 150 40<40 160 200 320>
Fore
180 190 m 1
 150 220 l 1
 150 300 l 1
 180 330 l 1
 190 320 l 1
 190 200 l 1
 180 190 l 1
180 30 m 1
 150 60 l 1
 150 140 l 1
 180 170 l 1
 190 160 l 1
 190 40 l 1
 180 30 l 1
170 340 m 1
 140 310 l 1
 60 310 l 1
 30 340 l 1
 40 350 l 1
 160 350 l 1
 170 340 l 1
30 20 m 1
 60 50 l 1
 140 50 l 1
 170 20 l 1
 160 10 l 1
 40 10 l 1
 30 20 l 1
EndSplineSet
EndChar
StartChar: colon
Encoding: 58 58 42
Width: 106
Flags: HW
TeX: 0 0 0 0
HStem: 70.3008 37.1992<46.3999 58.1001> 237.801 37.1992<46.3999 58.1001>
VStem: 30.9502 42.5996<83.8003 94.0005 251.3 261.5>
Fore
25.9502 256.4 m 0
 25.9502 266.601 40.5498 280 52.25 280 c 0
 63.9502 280 78.5498 266.601 78.5498 256.4 c 0
 78.5498 246.2 63.9502 232.801 52.25 232.801 c 0
 40.5498 232.801 25.9502 246.2 25.9502 256.4 c 0
25.9502 88.9004 m 0
 25.9502 99.1006 40.5498 112.5 52.25 112.5 c 0
 63.9502 112.5 78.5498 99.1006 78.5498 88.9004 c 0
 78.5498 78.7002 63.9502 65.3008 52.25 65.3008 c 4
 40.5498 65.3008 25.9502 78.7002 25.9502 88.9004 c 0
EndSplineSet
EndChar
StartChar: equal
Encoding: 61 61 43
Width: 200
Flags: HW
TeX: 0 0 0 0
HStem: 160 40<50 150>
Fore
170 138 m 1
 150 118 l 1
 50 118 l 1
 30 138 l 1
 50 158 l 1
 150 158 l 1
 170 138 l 1
170 228 m 1
 150 208 l 1
 50 208 l 1
 30 228 l 1
 50 248 l 1
 150 248 l 1
 170 228 l 1
EndSplineSet
EndChar
StartChar: a
Encoding: 97 97 44
Width: 200
Flags: HW
TeX: 0 0 0 0
HStem: 160 40<50 150> 310 40<40 160>
VStem: 10 40<40 160 200 320> 150 40<40 160 200 320>
Fore
170 180 m 1
 150 160 l 1
 50 160 l 1
 30 180 l 1
 50 200 l 1
 150 200 l 1
 170 180 l 1
180 190 m 1
 150 220 l 1
 150 300 l 1
 180 330 l 1
 190 320 l 1
 190 200 l 1
 180 190 l 1
180 30 m 1
 150 60 l 1
 150 140 l 1
 180 170 l 1
 190 160 l 1
 190 40 l 1
 180 30 l 1
20 170 m 1
 50 140 l 1
 50 60 l 1
 20 30 l 1
 10 40 l 1
 10 160 l 1
 20 170 l 1
20 330 m 1
 50 300 l 1
 50 220 l 1
 20 190 l 1
 10 200 l 1
 10 320 l 1
 20 330 l 1
170 340 m 1
 140 310 l 1
 60 310 l 1
 30 340 l 1
 40 350 l 1
 160 350 l 1
 170 340 l 1
EndSplineSet
EndChar
StartChar: b
Encoding: 98 98 45
Width: 200
Flags: HW
TeX: 0 0 0 0
HStem: 10 40<40 160> 160 40<50 150> 310 40<40 160>
VStem: 10 40<40 160 200 320> 150 40<40 160 200 320>
Fore
170 180 m 1
 150 160 l 1
 50 160 l 1
 30 180 l 1
 50 200 l 1
 150 200 l 1
 170 180 l 1
180 190 m 1
 150 220 l 1
 150 300 l 1
 180 330 l 1
 190 320 l 1
 190 200 l 1
 180 190 l 1
180 30 m 1
 150 60 l 1
 150 140 l 1
 180 170 l 1
 190 160 l 1
 190 40 l 1
 180 30 l 1
20 170 m 1
 50 140 l 1
 50 60 l 1
 10 20 l 1
 10 40 l 1
 10 160 l 1
 20 170 l 1
10 340 m 1
 50 300 l 1
 50 220 l 1
 20 190 l 1
 10 200 l 1
 10 320 l 1
 10 340 l 1
170 340 m 1
 140 310 l 1
 60 310 l 1
 20 350 l 1
 40 350 l 1
 160 350 l 1
 170 340 l 1
20 10 m 1
 60 50 l 1
 140 50 l 1
 170 20 l 1
 160 10 l 1
 40 10 l 1
 20 10 l 1
EndSplineSet
EndChar
StartChar: c
Encoding: 99 99 46
Width: 200
Flags: HW
TeX: 0 0 0 0
HStem: 10 40<40 160> 310 40<40 160>
VStem: 10 40<40 160 200 320>
Fore
20 170 m 1
 50 140 l 1
 50 60 l 1
 20 30 l 1
 10 40 l 1
 10 160 l 1
 20 170 l 1
20 330 m 1
 50 300 l 1
 50 220 l 1
 20 190 l 1
 10 200 l 1
 10 320 l 1
 20 330 l 1
170 340 m 1
 140 310 l 1
 60 310 l 1
 30 340 l 1
 40 350 l 1
 160 350 l 1
 170 340 l 1
30 20 m 1
 60 50 l 1
 140 50 l 1
 170 20 l 1
 160 10 l 1
 40 10 l 1
 30 20 l 1
EndSplineSet
EndChar
StartChar: d
Encoding: 100 100 47
Width: 200
Flags: HW
TeX: 0 0 0 0
HStem: 10 40<40 160> 160 40<50 150> 310 40<40 160>
VStem: 10 40<40 160 200 320> 150 40<40 160 200 320>
Fore
180 190 m 1
 150 220 l 1
 150 300 l 1
 180 330 l 1
 190 320 l 1
 190 200 l 1
 180 190 l 1
180 30 m 1
 150 60 l 1
 150 140 l 1
 180 170 l 1
 190 160 l 1
 190 40 l 1
 180 30 l 1
20 170 m 1
 50 140 l 1
 50 60 l 1
 10 20 l 1
 10 40 l 1
 10 160 l 1
 20 170 l 1
10 340 m 1
 50 300 l 1
 50 220 l 1
 20 190 l 1
 10 200 l 1
 10 320 l 1
 10 340 l 1
170 340 m 1
 140 310 l 1
 60 310 l 1
 20 350 l 1
 40 350 l 1
 160 350 l 1
 170 340 l 1
20 10 m 1
 60 50 l 1
 140 50 l 1
 170 20 l 1
 160 10 l 1
 40 10 l 1
 20 10 l 1
EndSplineSet
EndChar
StartChar: e
Encoding: 101 101 48
Width: 200
Flags: HW
TeX: 0 0 0 0
HStem: 10 40<40 160> 160 40<50 150> 310 40<40 160>
VStem: 10 40<40 160 200 320>
Fore
130 180 m 1
 110 160 l 1
 50 160 l 1
 30 180 l 1
 50 200 l 1
 110 200 l 1
 130 180 l 1
20 170 m 1
 50 140 l 1
 50 60 l 1
 20 30 l 1
 10 40 l 1
 10 160 l 1
 20 170 l 1
20 330 m 1
 50 300 l 1
 50 220 l 1
 20 190 l 1
 10 200 l 1
 10 320 l 1
 20 330 l 1
170 340 m 1
 140 310 l 1
 60 310 l 1
 30 340 l 1
 40 350 l 1
 160 350 l 1
 170 340 l 1
30 20 m 1
 60 50 l 1
 140 50 l 1
 170 20 l 1
 160 10 l 1
 40 10 l 1
 30 20 l 1
EndSplineSet
EndChar
StartChar: f
Encoding: 102 102 49
Width: 200
Flags: HW
TeX: 0 0 0 0
HStem: 160 40<50 150> 310 40<40 160>
VStem: 10 40<40 160 200 320>
Fore
170 180 m 1
 150 160 l 1
 50 160 l 1
 30 180 l 1
 50 200 l 1
 150 200 l 1
 170 180 l 1
20 170 m 1
 50 140 l 1
 50 60 l 1
 20 30 l 1
 10 40 l 1
 10 160 l 1
 20 170 l 1
20 330 m 1
 50 300 l 1
 50 220 l 1
 20 190 l 1
 10 200 l 1
 10 320 l 1
 20 330 l 1
170 340 m 1
 140 310 l 1
 60 310 l 1
 30 340 l 1
 40 350 l 1
 160 350 l 1
 170 340 l 1
EndSplineSet
EndChar
StartChar: g
Encoding: 103 103 50
Width: 200
Flags: HW
TeX: 0 0 0 0
HStem: 10 40<40 160> 160 40<106 150> 310 40<40 160>
VStem: 10 40<40 160 200 320> 150 40<40 160>
Fore
170 180 m 1
 150 160 l 1
 106 160 l 1
 86 180 l 1
 106 200 l 1
 190 200 l 1
 170 180 l 1
180 30 m 1
 150 60 l 1
 150 140 l 1
 190 180 l 1
 190 160 l 1
 190 40 l 1
 180 30 l 1
20 170 m 1
 50 140 l 1
 50 60 l 1
 20 30 l 1
 10 40 l 1
 10 160 l 1
 20 170 l 1
20 330 m 1
 50 300 l 1
 50 220 l 1
 20 190 l 1
 10 200 l 1
 10 320 l 1
 20 330 l 1
170 340 m 1
 140 310 l 1
 60 310 l 1
 30 340 l 1
 40 350 l 1
 160 350 l 1
 170 340 l 1
30 20 m 1
 60 50 l 1
 140 50 l 1
 170 20 l 1
 160 10 l 1
 40 10 l 1
 30 20 l 1
EndSplineSet
EndChar
StartChar: h
Encoding: 104 104 51
Width: 200
Flags: HW
TeX: 0 0 0 0
HStem: 160 40<50 150>
VStem: 10 40<40 160 200 320> 150 40<40 160 200 320>
Fore
170 180 m 1
 150 160 l 1
 50 160 l 1
 30 180 l 1
 50 200 l 1
 150 200 l 1
 170 180 l 1
180 190 m 1
 150 220 l 1
 150 300 l 1
 180 330 l 1
 190 320 l 1
 190 200 l 1
 180 190 l 1
180 30 m 1
 150 60 l 1
 150 140 l 1
 180 170 l 1
 190 160 l 1
 190 40 l 1
 180 30 l 1
20 170 m 1
 50 140 l 1
 50 60 l 1
 20 30 l 1
 10 40 l 1
 10 160 l 1
 20 170 l 1
20 330 m 1
 50 300 l 1
 50 220 l 1
 20 190 l 1
 10 200 l 1
 10 320 l 1
 20 330 l 1
EndSplineSet
EndChar
StartChar: i
Encoding: 105 105 52
Width: 200
VWidth: 0
Flags: HW
TeX: 0 0 0 0
VStem: 80 40<40 160 200 320>
Fore
110 190 m 1
 80 220 l 1
 80 300 l 1
 110 330 l 1
 120 320 l 1
 120 200 l 1
 110 190 l 1
110 30 m 1
 80 60 l 1
 80 140 l 1
 110 170 l 1
 120 160 l 1
 120 40 l 1
 110 30 l 1
EndSplineSet
EndChar
StartChar: j
Encoding: 106 106 53
Width: 200
Flags: HW
TeX: 0 0 0 0
HStem: 10 40<40 160> 160 40<50 150> 310 40<40 160>
VStem: 10 40<40 160 200 320> 150 40<40 160 200 320>
Fore
180 190 m 1
 150 220 l 1
 150 300 l 1
 180 330 l 1
 190 320 l 1
 190 200 l 1
 180 190 l 1
180 30 m 1
 150 60 l 1
 150 140 l 1
 180 170 l 1
 190 160 l 1
 190 40 l 1
 180 30 l 1
20 170 m 1
 50 140 l 1
 50 60 l 1
 20 30 l 1
 10 40 l 1
 10 160 l 1
 20 170 l 1
30 20 m 1
 60 50 l 1
 140 50 l 1
 170 20 l 1
 160 10 l 1
 40 10 l 1
 30 20 l 1
EndSplineSet
EndChar
StartChar: k
Encoding: 107 107 54
Width: 200
Flags: HW
TeX: 0 0 0 0
HStem: 160 40<50 150>
VStem: 10 40<40 160 200 320> 150 40<40 160>
Fore
170 180 m 1
 150 160 l 1
 50 160 l 1
 30 180 l 1
 50 200 l 1
 150 200 l 1
 170 180 l 1
180 30 m 1
 150 60 l 1
 150 140 l 1
 180 170 l 1
 190 160 l 1
 190 40 l 1
 180 30 l 1
20 170 m 1
 50 140 l 1
 50 60 l 1
 20 30 l 1
 10 40 l 1
 10 160 l 1
 20 170 l 1
20 330 m 1
 50 300 l 1
 50 220 l 1
 20 190 l 1
 10 200 l 1
 10 320 l 1
 20 330 l 1
EndSplineSet
EndChar
StartChar: l
Encoding: 108 108 55
Width: 200
Flags: HW
TeX: 0 0 0 0
HStem: 10 40<40 160> 160 40<50 150> 310 40<40 160>
VStem: 10 40<40 160 200 320> 150 40<40 160 200 320>
Fore
20 170 m 5
 50 140 l 5
 50 60 l 5
 20 30 l 5
 10 40 l 5
 10 160 l 5
 20 170 l 5
20 330 m 5
 50 300 l 5
 50 220 l 5
 20 190 l 5
 10 200 l 5
 10 320 l 5
 20 330 l 5
30 20 m 5
 60 50 l 5
 140 50 l 5
 170 20 l 5
 160 10 l 5
 40 10 l 5
 30 20 l 5
EndSplineSet
EndChar
StartChar: m
Encoding: 109 109 56
Width: 200
Flags: HW
TeX: 0 0 0 0
HStem: 310 40<40 160>
VStem: 10 40<40 160 200 320> 80 40<220 290> 150 40<40 160 200 320>
Fore
100 290 m 1
 120 290 l 1
 120 220 l 1
 100 200 l 1
 80 220 l 1
 80 290 l 1
 100 290 l 1
180 190 m 1
 150 220 l 1
 150 300 l 1
 180 330 l 1
 190 320 l 1
 190 200 l 1
 180 190 l 1
180 30 m 1
 150 60 l 1
 150 140 l 1
 180 170 l 1
 190 160 l 1
 190 40 l 1
 180 30 l 1
20 170 m 1
 50 140 l 1
 50 60 l 1
 20 30 l 1
 10 40 l 1
 10 160 l 1
 20 170 l 1
20 330 m 1
 50 300 l 1
 50 220 l 1
 20 190 l 1
 10 200 l 1
 10 320 l 1
 20 330 l 1
170 340 m 1
 140 310 l 1
 60 310 l 1
 30 340 l 1
 40 350 l 1
 160 350 l 1
 170 340 l 1
EndSplineSet
EndChar
StartChar: n
Encoding: 110 110 57
Width: 200
Flags: HW
TeX: 0 0 0 0
VStem: 10 40<40 160 200 320> 150 40<40 160 200 320>
Fore
139.996 95.501 m 5
 110.995 95.501 l 5
 59.9961 225.501 l 5
 59.9971 265.5 l 5
 90 265.5 l 5
 139.996 130.501 l 5
 139.996 95.501 l 5
180 190 m 1
 150 220 l 1
 150 300 l 1
 180 330 l 1
 190 320 l 1
 190 200 l 1
 180 190 l 1
180 30 m 1
 150 60 l 1
 150 140 l 1
 180 170 l 1
 190 160 l 1
 190 40 l 1
 180 30 l 1
20 170 m 1
 50 140 l 1
 50 60 l 1
 20 30 l 1
 10 40 l 1
 10 160 l 1
 20 170 l 1
20 330 m 1
 50 300 l 1
 50 220 l 1
 20 190 l 1
 10 200 l 1
 10 320 l 1
 20 330 l 1
EndSplineSet
EndChar
StartChar: o
Encoding: 111 111 58
Width: 200
VWidth: 0
Flags: HW
TeX: 0 0 0 0
HStem: 10 40<40 160> 310 40<40 160>
VStem: 10 40<40 160 200 320> 150 40<40 160 200 320>
Fore
180 190 m 1
 150 220 l 1
 150 300 l 1
 180 330 l 1
 190 320 l 1
 190 200 l 1
 180 190 l 1
180 30 m 1
 150 60 l 1
 150 140 l 1
 180 170 l 1
 190 160 l 1
 190 40 l 1
 180 30 l 1
20 170 m 1
 50 140 l 1
 50 60 l 1
 20 30 l 1
 10 40 l 1
 10 160 l 1
 20 170 l 1
20 330 m 1
 50 300 l 1
 50 220 l 1
 20 190 l 1
 10 200 l 1
 10 320 l 1
 20 330 l 1
170 340 m 1
 140 310 l 1
 60 310 l 1
 30 340 l 1
 40 350 l 1
 160 350 l 1
 170 340 l 1
30 20 m 1
 60 50 l 1
 140 50 l 1
 170 20 l 1
 160 10 l 1
 40 10 l 1
 30 20 l 1
EndSplineSet
EndChar
StartChar: p
Encoding: 112 112 59
Width: 200
Flags: HW
TeX: 0 0 0 0
HStem: 160 40<50 150> 310 40<40 160>
VStem: 10 40<40 160 200 320> 150 40<200 320>
Fore
170 180 m 1
 150 160 l 1
 50 160 l 1
 30 180 l 1
 50 200 l 1
 150 200 l 1
 170 180 l 1
180 190 m 1
 150 220 l 1
 150 300 l 1
 180 330 l 1
 190 320 l 1
 190 200 l 1
 180 190 l 1
20 170 m 1
 50 140 l 1
 50 60 l 1
 20 30 l 1
 10 40 l 1
 10 160 l 1
 20 170 l 1
20 330 m 1
 50 300 l 1
 50 220 l 1
 20 190 l 1
 10 200 l 1
 10 320 l 1
 20 330 l 1
170 340 m 1
 140 310 l 1
 60 310 l 1
 30 340 l 1
 40 350 l 1
 160 350 l 1
 170 340 l 1
EndSplineSet
EndChar
StartChar: q
Encoding: 113 113 60
Width: 200
Flags: HW
TeX: 0 0 0 0
HStem: 10 40<40 130> 310 40<40 160>
VStem: 10 40<40 160 200 320> 150 40<70 160 200 320>
Fore
190.5 10.5 m 1
 162.216 10.5 l 1
 91.5059 81.21 l 1
 91.5059 109.494 l 1
 119.79 109.494 l 1
 190.5 38.7842 l 1
 190.5 10.5 l 1
180 190 m 1
 150 220 l 1
 150 300 l 1
 180 330 l 1
 190 320 l 1
 190 200 l 1
 180 190 l 1
180 60 m 1
 150 90 l 1
 150 140 l 1
 180 170 l 1
 190 160 l 1
 190 70 l 1
 180 60 l 1
20 170 m 1
 50 140 l 1
 50 60 l 1
 20 30 l 1
 10 40 l 1
 10 160 l 1
 20 170 l 1
20 330 m 1
 50 300 l 1
 50 220 l 1
 20 190 l 1
 10 200 l 1
 10 320 l 1
 20 330 l 1
170 340 m 1
 140 310 l 1
 60 310 l 1
 30 340 l 1
 40 350 l 1
 160 350 l 1
 170 340 l 1
30 20 m 1
 60 50 l 1
 110 50 l 1
 140 20 l 1
 130 10 l 1
 40 10 l 1
 30 20 l 1
EndSplineSet
EndChar
StartChar: r
Encoding: 114 114 61
Width: 200
Flags: HW
TeX: 0 0 0 0
HStem: 160 40<50 150> 310 40<40 160>
VStem: 10 40<40 160 200 320> 150 40<200 320>
Fore
81.5049 138.995 m 5
 123.931 138.995 l 5
 180.5 82.4258 l 5
 180.5 40 l 5
 166.358 40 l 5
 81.5049 124.853 l 5
 81.5049 138.995 l 5
170 180 m 1
 150 160 l 1
 50 160 l 1
 30 180 l 1
 50 200 l 1
 150 200 l 1
 170 180 l 1
180 190 m 1
 150 220 l 1
 150 300 l 1
 180 330 l 1
 190 320 l 1
 190 200 l 1
 180 190 l 1
20 170 m 1
 50 140 l 1
 50 60 l 1
 20 30 l 1
 10 40 l 1
 10 160 l 1
 20 170 l 1
20 330 m 1
 50 300 l 1
 50 220 l 1
 20 190 l 1
 10 200 l 1
 10 320 l 1
 20 330 l 1
170 340 m 1
 140 310 l 1
 60 310 l 1
 30 340 l 1
 40 350 l 1
 160 350 l 1
 170 340 l 1
EndSplineSet
EndChar
StartChar: s
Encoding: 115 115 62
Width: 200
Flags: HW
TeX: 0 0 0 0
HStem: 10 40<40 160> 160 40<50 150> 310 40<40 160>
VStem: 10 40<200 320> 150 40<40 160>
Fore
170 180 m 1
 150 160 l 1
 50 160 l 1
 30 180 l 1
 50 200 l 1
 150 200 l 1
 170 180 l 1
180 30 m 1
 150 60 l 1
 150 140 l 1
 180 170 l 1
 190 160 l 1
 190 40 l 1
 180 30 l 1
20 330 m 1
 50 300 l 1
 50 220 l 1
 20 190 l 1
 10 200 l 1
 10 320 l 1
 20 330 l 1
170 340 m 1
 140 310 l 1
 60 310 l 1
 30 340 l 1
 40 350 l 1
 160 350 l 1
 170 340 l 1
30 20 m 1
 60 50 l 1
 140 50 l 1
 170 20 l 1
 160 10 l 1
 40 10 l 1
 30 20 l 1
EndSplineSet
EndChar
StartChar: t
Encoding: 116 116 63
Width: 200
Flags: HW
TeX: 0 0 0 0
HStem: 310 40<40 160>
VStem: 86 40<40 160 200 300>
Fore
116 190 m 1
 86 220 l 1
 86 300 l 1
 116 300 l 1
 126 300 l 1
 126 200 l 1
 116 190 l 1
116 30 m 1
 86 60 l 1
 86 140 l 1
 116 170 l 1
 126 160 l 1
 126 40 l 1
 116 30 l 1
170 340 m 1
 140 310 l 1
 60 310 l 1
 30 340 l 1
 40 350 l 1
 160 350 l 1
 170 340 l 1
EndSplineSet
EndChar
StartChar: u
Encoding: 117 117 64
Width: 200
Flags: HW
TeX: 0 0 0 0
HStem: 10 40<40 160>
VStem: 10 40<40 160 200 320> 150 40<40 160 200 320>
Fore
180 190 m 1
 150 220 l 1
 150 300 l 1
 180 330 l 1
 190 320 l 1
 190 200 l 1
 180 190 l 1
180 30 m 1
 150 60 l 1
 150 140 l 1
 180 170 l 1
 190 160 l 1
 190 40 l 1
 180 30 l 1
20 170 m 1
 50 140 l 1
 50 60 l 1
 20 30 l 1
 10 40 l 1
 10 160 l 1
 20 170 l 1
20 330 m 1
 50 300 l 1
 50 220 l 1
 20 190 l 1
 10 200 l 1
 10 320 l 1
 20 330 l 1
30 20 m 1
 60 50 l 1
 140 50 l 1
 170 20 l 1
 160 10 l 1
 40 10 l 1
 30 20 l 1
EndSplineSet
EndChar
StartChar: v
Encoding: 118 118 65
Width: 200
Flags: HW
TeX: 0 0 0 0
VStem: 10 40<195 320> 150 40<195 320>
Fore
109.998 9.99902 m 5
 109.998 49.9941 l 5
 160.002 164.997 l 5
 190 165 l 5
 190 135 l 5
 140.333 10 l 5
 109.998 9.99902 l 5
10 165 m 5
 40 164.996 l 5
 90.0029 50.6611 l 5
 90 9.99805 l 5
 60 10 l 5
 10 135 l 5
 10 165 l 5
180 185 m 1
 150 215 l 1
 150 300 l 1
 180 330 l 1
 190 320 l 1
 190 195 l 1
 180 185 l 1
20 330 m 1
 50 300 l 1
 50 215 l 1
 20 185 l 1
 10 195 l 1
 10 320 l 1
 20 330 l 1
EndSplineSet
EndChar
StartChar: w
Encoding: 119 119 66
Width: 200
Flags: HW
TeX: 0 0 0 0
HStem: 30 40<40 160>
VStem: 10 40<60 180 220 340> 80 40<90 160> 150 40<60 180 220 340>
Fore
100 90 m 5
 80 90 l 5
 80 160 l 5
 100 180 l 5
 120 160 l 5
 120 90 l 5
 100 90 l 5
20 190 m 5
 50 160 l 5
 50 80 l 5
 20 50 l 5
 10 60 l 5
 10 180 l 5
 20 190 l 5
20 350 m 5
 50 320 l 5
 50 240 l 5
 20 210 l 5
 10 220 l 5
 10 340 l 5
 20 350 l 5
180 210 m 5
 150 240 l 5
 150 320 l 5
 180 350 l 5
 190 340 l 5
 190 220 l 5
 180 210 l 5
180 50 m 5
 150 80 l 5
 150 160 l 5
 180 190 l 5
 190 180 l 5
 190 60 l 5
 180 50 l 5
30 40 m 5
 60 70 l 5
 140 70 l 5
 170 40 l 5
 160 30 l 5
 40 30 l 5
 30 40 l 5
EndSplineSet
EndChar
StartChar: x
Encoding: 120 120 67
Width: 200
Flags: HW
TeX: 0 0 0 0
Fore
109.998 189.999 m 5
 109.998 229.994 l 5
 160.002 339.997 l 5
 190 340 l 5
 190 310 l 5
 140.333 190 l 5
 109.998 189.999 l 5
190 20 m 5
 159.999 20 l 5
 110 130 l 5
 110.001 169.999 l 5
 140.004 169.999 l 5
 190 50 l 5
 190 20 l 5
90.001 169.995 m 5
 90 130 l 5
 40.001 20.001 l 5
 10 20 l 5
 10 50 l 5
 59.998 169.994 l 5
 90.001 169.995 l 5
10 340 m 5
 40 339.996 l 5
 90.0029 230.661 l 5
 90 189.998 l 5
 60 190 l 5
 10 310 l 5
 10 340 l 5
EndSplineSet
EndChar
StartChar: y
Encoding: 121 121 68
Width: 200
Flags: HW
TeX: 0 0 0 0
HStem: 160 40<50 150>
VStem: 10 40<200 320> 89 40<40 140> 150 40<200 320>
Fore
170 180 m 1
 150 160 l 1
 50 160 l 1
 30 180 l 1
 50 200 l 1
 150 200 l 1
 170 180 l 1
180 190 m 1
 150 220 l 1
 150 300 l 1
 180 330 l 1
 190 320 l 1
 190 200 l 1
 180 190 l 1
119 30 m 1
 89 60 l 1
 89 140 l 1
 119 140 l 1
 129 140 l 1
 129 40 l 1
 119 30 l 1
20 330 m 1
 50 300 l 1
 50 220 l 1
 20 190 l 1
 10 200 l 1
 10 320 l 1
 20 330 l 1
EndSplineSet
EndChar
StartChar: z
Encoding: 122 122 69
Width: 200
Flags: HW
TeX: 0 0 0 0
HStem: 10 40<40 160> 310 40<40 160>
Fore
180 310 m 1
 180 267.574 l 1
 118.431 191.005 l 1
 86.0049 191.005 l 1
 86.0049 205.147 l 1
 165.857 310 l 1
 180 310 l 1
20 50 m 1
 20 92.4258 l 1
 81.5693 168.995 l 1
 113.995 168.995 l 5
 113.995 154.853 l 5
 34.1426 50 l 1
 20 50 l 1
170 340 m 1
 140 310 l 1
 60 310 l 1
 30 340 l 1
 40 350 l 1
 160 350 l 1
 170 340 l 1
30 20 m 1
 60 50 l 1
 140 50 l 1
 170 20 l 1
 160 10 l 1
 40 10 l 1
 30 20 l 1
EndSplineSet
EndChar
StartChar: slash
Encoding: 47 47 70
Width: 200
Flags: HW
TeX: 0 0 0 0
Fore
180 310 m 5
 180 267.574 l 5
 118.431 191.005 l 5
 86.0049 191.005 l 5
 86.0049 205.147 l 5
 165.857 310 l 5
 180 310 l 5
20 50 m 1
 20 92.4258 l 1
 81.5693 168.995 l 1
 113.995 168.995 l 1
 113.995 154.853 l 1
 34.1426 50 l 1
 20 50 l 1
EndSplineSet
EndChar
StartChar: backslash
Encoding: 92 92 71
Width: 200
Flags: HW
TeX: 0 0 0 0
Fore
20 310 m 5
 20 267.574 l 5
 81.5693 191.005 l 5
 113.995 191.005 l 5
 113.995 205.147 l 5
 34.1426 310 l 5
 20 310 l 5
180 50 m 5
 180 92.4258 l 5
 118.431 168.995 l 5
 86.0049 168.995 l 5
 86.0049 154.853 l 5
 165.857 50 l 5
 180 50 l 5
EndSplineSet
EndChar
StartChar: plus
Encoding: 43 43 72
Width: 200
Flags: HW
TeX: 0 0 0 0
HStem: 160 40<45 155>
VStem: 85 40<125.5 150.5 210.5 235.5>
Fore
105 105.5 m 1
 85 125.5 l 1
 85 150.5 l 1
 105 150.5 l 1
 125 150.5 l 1
 125 125.5 l 1
 105 105.5 l 1
105 255.5 m 1
 125 235.5 l 1
 125 210.5 l 1
 105 210.5 l 1
 85 210.5 l 1
 85 235.5 l 1
 105 255.5 l 1
175 180 m 1
 155 160 l 1
 45 160 l 1
 25 180 l 1
 45 200 l 1
 155 200 l 1
 175 180 l 1
EndSplineSet
EndChar
StartChar: percent
Encoding: 37 37 73
Width: 200
Flags: HWO
TeX: 0 0 0 0
Fore
127.7 72.4004 m 0
 127.7 82.6006 142.3 96 154 96 c 0
 165.7 96 180.3 82.6006 180.3 72.4004 c 0
 180.3 62.2002 165.7 48.8008 154 48.8008 c 0
 142.3 48.8008 127.7 62.2002 127.7 72.4004 c 0
20.4004 286 m 0
 20.4004 296.201 35 309.6 46.7002 309.6 c 0
 58.4004 309.6 73 296.201 73 286 c 0
 73 275.8 58.4004 262.401 46.7002 262.401 c 0
 35 262.401 20.4004 275.8 20.4004 286 c 0
180 310 m 1
 180 267.574 l 1
 118.431 191.005 l 1
 86.0049 191.005 l 1
 86.0049 205.147 l 1
 165.857 310 l 1
 180 310 l 1
20 50 m 1
 20 92.4258 l 1
 81.5693 168.995 l 1
 113.995 168.995 l 1
 113.995 154.853 l 1
 34.1426 50 l 1
 20 50 l 1
EndSplineSet
EndChar
StartChar: numbersign
Encoding: 35 35 74
Width: 200
Flags: HW
TeX: 0 0 0 0
HStem: 100 40<35 165> 160 40<35 165>
VStem: 50 40<64.5 89.5 209.5 234.5> 111 40<64.5 89.5 208.5 233.5>
Fore
185 120 m 1
 165 100 l 1
 35 100 l 1
 15 120 l 1
 35 140 l 1
 165 140 l 1
 185 120 l 1
131 44.5 m 1
 111 64.5 l 1
 111 89.5 l 1
 131 89.5 l 1
 151 89.5 l 1
 151 64.5 l 1
 131 44.5 l 1
131 253.5 m 1
 151 233.5 l 1
 151 208.5 l 1
 131 208.5 l 1
 111 208.5 l 1
 111 233.5 l 1
 131 253.5 l 1
70 44.5 m 1
 50 64.5 l 1
 50 89.5 l 1
 70 89.5 l 1
 90 89.5 l 1
 90 64.5 l 1
 70 44.5 l 1
70 254.5 m 1
 90 234.5 l 1
 90 209.5 l 1
 70 209.5 l 1
 50 209.5 l 1
 50 234.5 l 1
 70 254.5 l 1
185 180 m 1
 165 160 l 1
 35 160 l 1
 15 180 l 1
 35 200 l 1
 165 200 l 1
 185 180 l 1
EndSplineSet
EndChar
StartChar: less
Encoding: 60 60 75
Width: 200
Flags: HW
TeX: 0 0 0 0
Fore
22.5 168.501 m 1
 62.4951 168.501 l 1
 177.498 118.497 l 1
 177.501 88.499 l 1
 147.501 88.499 l 1
 22.501 138.166 l 1
 22.5 168.501 l 1
177.501 268.499 m 1
 177.497 238.499 l 1
 63.1621 188.496 l 1
 22.499 188.499 l 1
 22.501 218.499 l 1
 147.501 268.499 l 1
 177.501 268.499 l 1
EndSplineSet
EndChar
StartChar: greater
Encoding: 62 62 77
Width: 200
Flags: HW
TeX: 0 0 0 0
Fore
177.5 188.497 m 5
 137.505 188.497 l 5
 22.502 238.501 l 5
 22.499 268.499 l 5
 52.499 268.499 l 5
 177.499 218.832 l 5
 177.5 188.497 l 5
22.499 88.499 m 5
 22.5029 118.499 l 5
 136.838 168.502 l 5
 177.501 168.499 l 5
 177.499 138.499 l 5
 52.499 88.499 l 5
 22.499 88.499 l 5
EndSplineSet
EndChar
StartChar: exclam
Encoding: 33 33 78
Width: 200
VWidth: 0
Flags: HW
TeX: 0 0 0 0
HStem: 8.58105 44.6387<93.48 107.52>
VStem: 74.9404 51.1191<24.7803 37.0205> 80 40<65 165 200 320>
Fore
74.9404 30.9004 m 4xc0
 74.9404 43.1406 86.46 53.2197 100.5 53.2197 c 4
 114.54 53.2197 126.06 43.1406 126.06 30.9004 c 4
 126.06 18.6602 114.54 8.58105 100.5 8.58105 c 4
 86.46 8.58105 74.9404 18.6602 74.9404 30.9004 c 4xc0
110 190 m 1
 80 220 l 1
 80 300 l 1
 110 330 l 1
 120 320 l 1
 120 200 l 1xa0
 110 190 l 1
110 65 m 1
 80 65 l 1
 80 145 l 1
 110 175 l 1
 120 165 l 1
 120 65 l 1
 110 65 l 1
EndSplineSet
EndChar
StartChar: bar
Encoding: 124 124 79
Width: 200
VWidth: 0
Flags: HW
TeX: 0 0 0 0
VStem: 80 40<40 160 200 320>
Fore
110 190 m 5
 80 220 l 5
 80 300 l 5
 110 330 l 5
 120 320 l 5
 120 200 l 5
 110 190 l 5
110 30 m 5
 80 60 l 5
 80 140 l 5
 110 170 l 5
 120 160 l 5
 120 40 l 5
 110 30 l 5
EndSplineSet
EndChar
